<svg xmlns="http://www.w3.org/2000/svg" width="72" height="24" viewBox="0 0 72 24" shape-rendering="crispEdges"><g transform="translate(0,0)"><polygon points="3,20 6,22 19,22 22,20 19,18 7,18" fill="#454464"/><polygon points="5,21 7,21 3,16 1,14" fill="#6b6489"/><rect x="5" y="19" width="1" height="2" fill="#454464"/><polygon points="8,21 10,21 8,17 6,15" fill="#9382b0"/><rect x="8" y="19" width="1" height="2" fill="#454464"/><polygon points="9,21 11,21 11,17 9,15" fill="#b2a1c8"/><rect x="9" y="19" width="1" height="2" fill="#454464"/><polygon points="11,21 13,21 9,14 7,12" fill="#6b6489"/><rect x="11" y="19" width="1" height="2" fill="#454464"/><polygon points="13,21 15,21 13,17 11,15" fill="#9382b0"/><rect x="13" y="19" width="1" height="2" fill="#454464"/><rect x="6" y="12" width="1" height="5" fill="#6b6489"/><rect x="5" y="11" width="3" height="2" fill="#d4c4ed"/><rect x="6" y="10" width="1" height="1" fill="#b2a1c8"/><rect x="13" y="10" width="1" height="5" fill="#6b6489"/><rect x="12" y="9" width="3" height="2" fill="#d4c4ed"/><rect x="13" y="8" width="1" height="1" fill="#b2a1c8"/><rect x="18" y="14" width="1" height="5" fill="#6b6489"/><rect x="17" y="13" width="3" height="2" fill="#d4c4ed"/><rect x="18" y="12" width="1" height="1" fill="#b2a1c8"/></g><g transform="translate(24,0)"><polygon points="3,20 6,22 19,22 22,20 19,18 7,18" fill="#454464"/><polygon points="5,21 7,21 4,16 2,14" fill="#6b6489"/><rect x="5" y="19" width="1" height="2" fill="#454464"/><polygon points="8,21 10,21 9,17 7,15" fill="#9382b0"/><rect x="8" y="19" width="1" height="2" fill="#454464"/><polygon points="9,21 11,21 12,17 10,15" fill="#b2a1c8"/><rect x="9" y="19" width="1" height="2" fill="#454464"/><polygon points="11,21 13,21 10,14 8,12" fill="#6b6489"/><rect x="11" y="19" width="1" height="2" fill="#454464"/><polygon points="13,21 15,21 14,17 12,15" fill="#9382b0"/><rect x="13" y="19" width="1" height="2" fill="#454464"/><rect x="7" y="12" width="1" height="5" fill="#6b6489"/><rect x="6" y="11" width="3" height="2" fill="#d4c4ed"/><rect x="7" y="10" width="1" height="1" fill="#b2a1c8"/><rect x="14" y="10" width="1" height="5" fill="#6b6489"/><rect x="13" y="9" width="3" height="2" fill="#d4c4ed"/><rect x="14" y="8" width="1" height="1" fill="#b2a1c8"/><rect x="19" y="14" width="1" height="5" fill="#6b6489"/><rect x="18" y="13" width="3" height="2" fill="#d4c4ed"/><rect x="19" y="12" width="1" height="1" fill="#b2a1c8"/></g><g transform="translate(48,0)"><polygon points="3,20 6,22 19,22 22,20 19,18 7,18" fill="#454464"/><polygon points="5,21 7,21 5,16 3,14" fill="#6b6489"/><rect x="5" y="19" width="1" height="2" fill="#454464"/><polygon points="8,21 10,21 10,17 8,15" fill="#9382b0"/><rect x="8" y="19" width="1" height="2" fill="#454464"/><polygon points="9,21 11,21 13,17 11,15" fill="#b2a1c8"/><rect x="9" y="19" width="1" height="2" fill="#454464"/><polygon points="11,21 13,21 11,14 9,12" fill="#6b6489"/><rect x="11" y="19" width="1" height="2" fill="#454464"/><polygon points="13,21 15,21 15,17 13,15" fill="#9382b0"/><rect x="13" y="19" width="1" height="2" fill="#454464"/><rect x="8" y="12" width="1" height="5" fill="#6b6489"/><rect x="7" y="11" width="3" height="2" fill="#d4c4ed"/><rect x="8" y="10" width="1" height="1" fill="#b2a1c8"/><rect x="15" y="10" width="1" height="5" fill="#6b6489"/><rect x="14" y="9" width="3" height="2" fill="#d4c4ed"/><rect x="15" y="8" width="1" height="1" fill="#b2a1c8"/><rect x="20" y="14" width="1" height="5" fill="#6b6489"/><rect x="19" y="13" width="3" height="2" fill="#d4c4ed"/><rect x="20" y="12" width="1" height="1" fill="#b2a1c8"/></g></svg>