<svg xmlns="http://www.w3.org/2000/svg" width="72" height="24" viewBox="0 0 72 24" shape-rendering="crispEdges"><g transform="translate(0,0)"><rect x="8" y="13" width="2" height="7" fill="#cca579"/><polygon points="3,15 4,11 7,9 11,12 12,15" fill="#694642"/><polygon points="4,14 5,11 7,10 10,12 11,14" fill="#b39163"/><rect x="6" y="11" width="2" height="1" fill="#e19a6c"/><rect x="17" y="14" width="2" height="7" fill="#cca579"/><polygon points="12,16 13,12 16,10 20,13 21,16" fill="#694642"/><polygon points="13,15 14,12 16,11 19,13 20,15" fill="#b39163"/><rect x="15" y="12" width="2" height="1" fill="#e19a6c"/></g><g transform="translate(24,0)"><rect x="8" y="13" width="2" height="7" fill="#cca579"/><polygon points="4,15 5,11 8,9 12,12 13,15" fill="#694642"/><polygon points="5,14 6,11 8,10 11,12 12,14" fill="#b39163"/><rect x="7" y="11" width="2" height="1" fill="#e19a6c"/><rect x="17" y="14" width="2" height="7" fill="#cca579"/><polygon points="13,16 14,12 17,10 21,13 22,16" fill="#694642"/><polygon points="14,15 15,12 17,11 20,13 21,15" fill="#b39163"/><rect x="16" y="12" width="2" height="1" fill="#e19a6c"/></g><g transform="translate(48,0)"><rect x="8" y="13" width="2" height="7" fill="#cca579"/><polygon points="5,15 6,11 9,9 13,12 14,15" fill="#694642"/><polygon points="6,14 7,11 9,10 12,12 13,14" fill="#b39163"/><rect x="8" y="11" width="2" height="1" fill="#e19a6c"/><rect x="17" y="14" width="2" height="7" fill="#cca579"/><polygon points="14,16 15,12 18,10 22,13 23,16" fill="#694642"/><polygon points="15,15 16,12 18,11 21,13 22,15" fill="#b39163"/><rect x="17" y="12" width="2" height="1" fill="#e19a6c"/></g></svg>